<svg width="115" height="14" viewBox="0 0 115 14" fill="none" xmlns="http://www.w3.org/2000/svg">
<path d="M10.013 0.6155V2.8935H6.528V13H3.655V2.8935H0.17V0.6155H10.013ZM14.0698 8.4185V13H11.1968V0.6155H15.2258C16.1211 0.6155 16.8833 0.709 17.5123 0.896C18.1469 1.07733 18.6626 1.33233 19.0593 1.661C19.4616 1.98967 19.7534 2.37783 19.9348 2.8255C20.1161 3.27317 20.2068 3.7605 20.2068 4.2875C20.2068 4.68983 20.1529 5.0695 20.0453 5.4265C19.9376 5.7835 19.7761 6.115 19.5608 6.421C19.3511 6.72133 19.0904 6.9905 18.7788 7.2285C18.4728 7.4665 18.1186 7.662 17.7163 7.815C17.9089 7.91133 18.0874 8.03033 18.2518 8.172C18.4218 8.31367 18.5691 8.4865 18.6938 8.6905L21.3288 13H18.7278C18.2461 13 17.9004 12.8187 17.6908 12.456L15.6338 8.8605C15.5431 8.70183 15.4354 8.5885 15.3108 8.5205C15.1918 8.4525 15.0218 8.4185 14.8008 8.4185H14.0698ZM14.0698 6.438H15.2258C15.6168 6.438 15.9483 6.38983 16.2203 6.2935C16.4979 6.1915 16.7246 6.05267 16.9003 5.877C17.0759 5.70133 17.2034 5.49733 17.2828 5.265C17.3621 5.027 17.4018 4.772 17.4018 4.5C17.4018 3.956 17.2233 3.531 16.8663 3.225C16.5149 2.919 15.9681 2.766 15.2258 2.766H14.0698V6.438ZM25.5539 6.6335L21.7204 0.6155H24.5934C24.7804 0.6155 24.9164 0.641 25.0014 0.691999C25.0921 0.737333 25.1714 0.816666 25.2394 0.929999L27.7044 5.1035C27.7328 5.02983 27.7639 4.959 27.7979 4.891C27.8376 4.823 27.8801 4.75217 27.9254 4.6785L30.0844 0.972499C30.2261 0.7345 30.4188 0.6155 30.6624 0.6155H33.4164L29.5319 6.506L33.5014 13H30.6284C30.4414 13 30.2884 12.9547 30.1694 12.864C30.0561 12.7733 29.9654 12.6657 29.8974 12.541L27.4154 8.206C27.3701 8.33067 27.3191 8.43833 27.2624 8.529L24.9504 12.541C24.8824 12.66 24.7918 12.7677 24.6784 12.864C24.5651 12.9547 24.4234 13 24.2534 13H21.5674L25.5539 6.6335Z" fill="#D70404"/>
<path d="M42.9265 9.7955C42.9945 9.7955 43.0625 9.80967 43.1305 9.838C43.1985 9.86067 43.2636 9.90317 43.326 9.9655L44.465 11.164C43.9663 11.8157 43.3401 12.3087 42.5865 12.643C41.8385 12.9717 40.9516 13.136 39.926 13.136C38.9853 13.136 38.141 12.9773 37.393 12.66C36.6506 12.337 36.0188 11.895 35.4975 11.334C34.9818 10.7673 34.5851 10.0987 34.3075 9.328C34.0298 8.55167 33.891 7.71017 33.891 6.8035C33.891 5.87983 34.0496 5.03267 34.367 4.262C34.6843 3.48567 35.1263 2.817 35.693 2.256C36.2653 1.695 36.9481 1.25867 37.7415 0.946999C38.5348 0.635333 39.4103 0.4795 40.368 0.4795C40.8326 0.4795 41.269 0.522 41.677 0.606999C42.0906 0.686332 42.476 0.799666 42.833 0.946999C43.19 1.08867 43.5186 1.2615 43.819 1.4655C44.1193 1.66383 44.3856 1.88483 44.618 2.1285L43.649 3.429C43.5866 3.50833 43.513 3.582 43.428 3.65C43.343 3.71233 43.224 3.7435 43.071 3.7435C42.969 3.7435 42.8726 3.72083 42.782 3.6755C42.6913 3.63017 42.595 3.57633 42.493 3.514C42.391 3.446 42.2776 3.37517 42.153 3.3015C42.034 3.22217 41.8895 3.15133 41.7195 3.089C41.5551 3.021 41.3596 2.96433 41.133 2.919C40.912 2.87367 40.6513 2.851 40.351 2.851C39.8296 2.851 39.3536 2.9445 38.923 3.1315C38.4923 3.31283 38.1211 3.57633 37.8095 3.922C37.5035 4.262 37.2626 4.67567 37.087 5.163C36.917 5.65033 36.832 6.19717 36.832 6.8035C36.832 7.43817 36.917 8.002 37.087 8.495C37.2626 8.988 37.4978 9.4045 37.7925 9.7445C38.0928 10.0788 38.4413 10.3338 38.838 10.5095C39.2346 10.6852 39.6596 10.773 40.113 10.773C40.3736 10.773 40.6116 10.7617 40.827 10.739C41.0423 10.7107 41.2406 10.6653 41.422 10.603C41.609 10.5407 41.7846 10.4613 41.949 10.365C42.119 10.263 42.289 10.1383 42.459 9.991C42.527 9.93433 42.6006 9.889 42.68 9.855C42.7593 9.81533 42.8415 9.7955 42.9265 9.7955ZM58.0008 6.8035C58.0008 7.69883 57.845 8.53183 57.5333 9.3025C57.2273 10.0732 56.7938 10.7447 56.2328 11.317C55.6718 11.8837 54.9946 12.3285 54.2013 12.6515C53.4136 12.9745 52.5381 13.136 51.5748 13.136C50.6115 13.136 49.7331 12.9745 48.9398 12.6515C48.1465 12.3285 47.4665 11.8837 46.8998 11.317C46.3388 10.7447 45.9025 10.0732 45.5908 9.3025C45.2848 8.53183 45.1318 7.69883 45.1318 6.8035C45.1318 5.90817 45.2848 5.07517 45.5908 4.3045C45.9025 3.53383 46.3388 2.86517 46.8998 2.2985C47.4665 1.73183 48.1465 1.287 48.9398 0.964C49.7331 0.641 50.6115 0.4795 51.5748 0.4795C52.5381 0.4795 53.4136 0.643833 54.2013 0.972499C54.9946 1.2955 55.6718 1.74033 56.2328 2.307C56.7938 2.87367 57.2273 3.54233 57.5333 4.313C57.845 5.08367 58.0008 5.91383 58.0008 6.8035ZM55.0598 6.8035C55.0598 6.1915 54.9805 5.64183 54.8218 5.1545C54.6631 4.6615 54.4336 4.245 54.1333 3.905C53.8386 3.565 53.476 3.30433 53.0453 3.123C52.6146 2.94167 52.1245 2.851 51.5748 2.851C51.0195 2.851 50.5236 2.94167 50.0873 3.123C49.6566 3.30433 49.2911 3.565 48.9908 3.905C48.6961 4.245 48.4695 4.6615 48.3108 5.1545C48.1521 5.64183 48.0728 6.1915 48.0728 6.8035C48.0728 7.42117 48.1521 7.9765 48.3108 8.4695C48.4695 8.95683 48.6961 9.3705 48.9908 9.7105C49.2911 10.0505 49.6566 10.3112 50.0873 10.4925C50.5236 10.6682 51.0195 10.756 51.5748 10.756C52.1245 10.756 52.6146 10.6682 53.0453 10.4925C53.476 10.3112 53.8386 10.0505 54.1333 9.7105C54.4336 9.3705 54.6631 8.95683 54.8218 8.4695C54.9805 7.9765 55.0598 7.42117 55.0598 6.8035ZM60.8875 0.6155C61.0122 0.6155 61.117 0.621166 61.202 0.6325C61.287 0.643833 61.3635 0.6665 61.4315 0.7005C61.4995 0.728833 61.5647 0.771333 61.627 0.828C61.6893 0.884666 61.7602 0.961166 61.8395 1.0575L67.7215 8.495C67.6988 8.257 67.6818 8.0275 67.6705 7.8065C67.6592 7.57983 67.6535 7.36733 67.6535 7.169V0.6155H70.1865V13H68.6905C68.4695 13 68.2825 12.966 68.1295 12.898C67.9765 12.83 67.8292 12.7053 67.6875 12.524L61.848 5.146C61.865 5.36133 61.8792 5.57383 61.8905 5.7835C61.9018 5.9875 61.9075 6.18017 61.9075 6.3615V13H59.3745V0.6155H60.8875ZM73.7371 0.6155C73.8618 0.6155 73.9666 0.621166 74.0516 0.6325C74.1366 0.643833 74.2131 0.6665 74.2811 0.7005C74.3491 0.728833 74.4143 0.771333 74.4766 0.828C74.5389 0.884666 74.6098 0.961166 74.6891 1.0575L80.5711 8.495C80.5484 8.257 80.5314 8.0275 80.5201 7.8065C80.5088 7.57983 80.5031 7.36733 80.5031 7.169V0.6155H83.0361V13H81.5401C81.3191 13 81.1321 12.966 80.9791 12.898C80.8261 12.83 80.6788 12.7053 80.5371 12.524L74.6976 5.146C74.7146 5.36133 74.7288 5.57383 74.7401 5.7835C74.7514 5.9875 74.7571 6.18017 74.7571 6.3615V13H72.2241V0.6155H73.7371ZM93.0467 0.6155V2.8255H87.9637V5.7155H91.8567V7.8405H87.9637V10.79H93.0467V13H85.0737V0.6155H93.0467ZM103.008 9.7955C103.076 9.7955 103.144 9.80967 103.212 9.838C103.28 9.86067 103.345 9.90317 103.407 9.9655L104.546 11.164C104.047 11.8157 103.421 12.3087 102.668 12.643C101.92 12.9717 101.033 13.136 100.007 13.136C99.0663 13.136 98.222 12.9773 97.474 12.66C96.7317 12.337 96.0998 11.895 95.5785 11.334C95.0628 10.7673 94.6662 10.0987 94.3885 9.328C94.1108 8.55167 93.972 7.71017 93.972 6.8035C93.972 5.87983 94.1307 5.03267 94.448 4.262C94.7653 3.48567 95.2073 2.817 95.774 2.256C96.3463 1.695 97.0292 1.25867 97.8225 0.946999C98.6158 0.635333 99.4913 0.4795 100.449 0.4795C100.914 0.4795 101.35 0.522 101.758 0.606999C102.172 0.686332 102.557 0.799666 102.914 0.946999C103.271 1.08867 103.6 1.2615 103.9 1.4655C104.2 1.66383 104.467 1.88483 104.699 2.1285L103.73 3.429C103.668 3.50833 103.594 3.582 103.509 3.65C103.424 3.71233 103.305 3.7435 103.152 3.7435C103.05 3.7435 102.954 3.72083 102.863 3.6755C102.772 3.63017 102.676 3.57633 102.574 3.514C102.472 3.446 102.359 3.37517 102.234 3.3015C102.115 3.22217 101.971 3.15133 101.801 3.089C101.636 3.021 101.441 2.96433 101.214 2.919C100.993 2.87367 100.732 2.851 100.432 2.851C99.9107 2.851 99.4347 2.9445 99.004 3.1315C98.5733 3.31283 98.2022 3.57633 97.8905 3.922C97.5845 4.262 97.3437 4.67567 97.168 5.163C96.998 5.65033 96.913 6.19717 96.913 6.8035C96.913 7.43817 96.998 8.002 97.168 8.495C97.3437 8.988 97.5788 9.4045 97.8735 9.7445C98.1738 10.0788 98.5223 10.3338 98.919 10.5095C99.3157 10.6852 99.7407 10.773 100.194 10.773C100.455 10.773 100.693 10.7617 100.908 10.739C101.123 10.7107 101.322 10.6653 101.503 10.603C101.69 10.5407 101.866 10.4613 102.03 10.365C102.2 10.263 102.37 10.1383 102.54 9.991C102.608 9.93433 102.682 9.889 102.761 9.855C102.84 9.81533 102.923 9.7955 103.008 9.7955ZM114.852 0.6155V2.8935H111.367V13H108.494V2.8935H105.009V0.6155H114.852Z" fill="#0250C7"/>
</svg>
