<svg width="268" height="56" viewBox="0 0 268 56" fill="none" xmlns="http://www.w3.org/2000/svg">
<path d="M25.3268 53.4639C8.29371 52.2013 -3.03998 32.261 4.84363 16.7768L24.3172 50.3011C24.1233 51.415 24.522 52.6608 25.3268 53.4639Z" fill="url(#paint0_linear)"/>
<path d="M22.648 52.4695C22.648 52.6561 22.6636 52.8502 22.6944 53.0446C8.04559 50.3429 -1.56267 33.6506 3.77981 19.3727L22.6944 51.9256C22.6624 52.0646 22.6468 52.3094 22.648 52.4695Z" fill="url(#paint1_linear)"/>
<path d="M27.6873 28.8843C27.5063 29.8455 24.3757 46.4128 24.3098 46.781L7.9188 18.5797C9.03723 18.9534 10.3398 18.7336 11.2729 18.0203L27.6873 28.8843Z" fill="url(#paint2_linear)"/>
<path d="M27.6873 28.8843L24.6203 45.1256L9.29276 18.7508C10.0168 18.7051 10.7002 18.4521 11.2729 18.0203L27.6873 28.8843Z" fill="url(#paint3_linear)"/>
<path d="M33.5806 12.153L28.7121 26.2419L28.3704 27.2367L12.3906 16.6604C13.1688 15.1577 12.6726 13.1466 11.3736 12.1533H33.5806V12.153Z" fill="url(#paint4_linear)"/>
<path d="M33.5806 12.153L28.7121 26.2419L13.1209 15.9295C13.7349 14.7493 13.5792 13.1829 12.7947 12.153H33.5806Z" fill="url(#paint5_linear)"/>
<path d="M46.8426 10.3968H9.19952C18.4563 -0.392215 37.5885 -0.400414 46.8426 10.3968Z" fill="url(#paint6_linear)"/>
<path d="M45.748 9.29346H10.2946C19.3177 -0.045527 36.7276 -0.0548975 45.748 9.29346Z" fill="url(#paint7_linear)"/>
<path d="M45.0181 12.153C45.0181 12.1608 45.0103 12.1608 45.0103 12.1608C43.6172 13.2629 43.217 15.308 44.0939 16.831L30.4594 26.5683C30.3982 26.7342 35.2807 12.561 35.4211 12.153H45.0181Z" fill="url(#paint8_linear)"/>
<path d="M43.5427 12.153C43.5427 12.1608 43.5349 12.1608 43.5349 12.1608C42.1578 13.2622 41.7416 15.3154 42.6263 16.831L30.933 25.185L35.4211 12.153H43.5427Z" fill="url(#paint9_linear)"/>
<path d="M48.1007 18.6887L47.821 19.1705C47.5136 19.6983 31.2221 47.9624 30.9174 48.475C29.7631 46.9981 27.424 46.6459 25.9014 47.768L29.2559 30.0579L29.4654 29.4207L45.2744 18.137C46.0928 18.6875 47.1363 18.8741 48.1007 18.6887Z" fill="url(#paint10_linear)"/>
<path d="M48.0929 18.6887L30.9096 48.4672C30.1071 47.4849 28.8085 46.9567 27.5243 47.1308L30.6611 30.5939L30.8706 29.9568L46.6405 18.6887C47.1172 18.7898 47.6169 18.775 48.0929 18.6887Z" fill="url(#paint11_linear)"/>
<path d="M53.7143 27.8973C53.7478 41.2123 43.513 52.1747 30.7075 53.4717C29.8582 53.622 50.5759 17.7337 51.2063 16.808C52.8428 20.2594 53.7045 23.9325 53.7143 27.8973Z" fill="url(#paint12_linear)"/>
<path d="M53.7143 27.8973C53.7143 40.4475 44.7306 50.8996 32.8507 53.1531C32.9923 52.7131 33.031 52.2157 32.9904 51.7542L52.0372 18.7508C53.1166 21.595 53.7143 24.6801 53.7143 27.8973Z" fill="url(#paint13_linear)"/>
<path d="M50.2357 15.0441C50.2634 18.9514 44.1142 18.7082 44.4587 14.8262C44.658 11.2319 50.2915 11.4143 50.2357 15.0441Z" fill="url(#paint14_linear)"/>
<path d="M50.2357 15.0441C50.254 18.8039 44.8932 18.5286 45.212 14.8262C45.4047 11.3737 50.288 11.5935 50.2357 15.0441Z" fill="url(#paint15_linear)"/>
<path d="M30.9572 50.8539C31.0063 54.6766 25.0233 54.659 25.085 50.8535C25.0299 47.0519 31.0141 47.0398 30.9572 50.8539Z" fill="url(#paint16_linear)"/>
<path d="M11.9486 15.0441C11.9763 18.9514 5.82707 18.7082 6.17154 14.8262C6.37049 11.2319 12.004 11.4143 11.9486 15.0441Z" fill="url(#paint17_linear)"/>
<path d="M11.9486 15.0441C11.9669 18.8039 6.60611 18.5286 6.92482 14.8262C7.11753 11.3737 12.0005 11.5935 11.9486 15.0441Z" fill="url(#paint18_linear)"/>
<path d="M82.2951 18.4488V21.0205H68.5714V18.4488H82.2951ZM74.1475 24.7015H76.7191V37.3968H74.1475V24.7015Z" fill="url(#paint19_linear)"/>
<path d="M93.8217 30.6567H89.3556V37.3968H86.7571V28.085C89.6934 27.7828 97.7483 29.5725 97.3945 24.5659C97.7632 19.5268 89.6981 21.3175 86.7571 21.0199V18.4483H93.849C100.637 18.144 102.274 27.7652 96.5017 30.1419L100.589 37.3963H97.6389L93.8217 30.6567Z" fill="url(#paint20_linear)"/>
<path d="M108.597 29.9258L110.167 32.3618L107 37.3968H103.833L108.597 29.9258ZM107.542 18.4488L110.249 22.8066L108.733 25.2967L104.375 18.4483H107.542V18.4488ZM119.831 37.3968H116.664L110.519 27.544L116.123 18.4488H119.317L113.551 27.544L119.831 37.3968Z" fill="url(#paint21_linear)"/>
<path d="M147.461 31.9826L149.842 33.1735C145.365 41.1593 132.274 37.3291 132.817 27.9487C132.272 18.5395 145.374 14.6887 149.842 22.725L147.461 23.8891C144.157 18.2527 134.967 21.2401 135.469 27.9498C134.97 34.6347 144.178 37.6763 147.461 31.9826ZM142.074 26.3256C144.208 26.3086 144.229 29.6307 142.074 29.6008C139.958 29.6276 139.979 26.3106 142.074 26.3256Z" fill="url(#paint22_linear)"/>
<path d="M171.845 27.9498C172.248 40.4805 153.052 40.4723 153.465 27.9219C153.066 15.3757 172.269 15.4072 171.845 27.9498ZM169.192 27.9498C169.589 18.7576 155.74 18.6942 156.118 27.9235C155.728 37.1533 169.571 37.1311 169.192 27.9498ZM164.293 27.9498C164.328 30.0423 160.988 30.0691 161.018 27.9498C160.985 25.7913 164.331 25.8176 164.293 27.9498Z" fill="url(#paint23_linear)"/>
<path d="M190.923 37.586H190.68L179.149 24.9449V37.3962H176.577V18.2857H176.794L188.325 31.0351V18.4482H190.923V37.586Z" fill="url(#paint24_linear)"/>
<path d="M210.678 37.586H210.435L198.903 24.9449V37.3962H196.332V18.2857H196.548L208.08 31.0351V18.4482H210.678V37.586Z" fill="url(#paint25_linear)"/>
<path d="M228.511 21.0198H216.087V18.4482H228.511V21.0198ZM227.672 29.1675H216.087V26.65H227.672V29.1675ZM228.674 34.7977V37.3962H216.087V34.7977H228.674Z" fill="url(#paint26_linear)"/>
<path d="M247.482 31.9826L249.864 33.1735C245.387 41.1593 232.296 37.3291 232.838 27.9487C232.294 18.5395 245.396 14.6887 249.864 22.725L247.482 23.8891C244.179 18.2527 234.989 21.2401 235.491 27.9498C234.992 34.6347 244.2 37.6763 247.482 31.9826ZM242.096 26.3256C244.23 26.3086 244.251 29.6307 242.096 29.6008C239.98 29.6276 240.001 26.3106 242.096 26.3256Z" fill="url(#paint27_linear)"/>
<path d="M267.211 18.4487V21.0203H253.487V18.4487H267.211ZM259.063 24.7014H261.635V37.3967H259.063V24.7014Z" fill="url(#paint28_linear)"/>
<defs>
<linearGradient id="paint0_linear" x1="61" y1="28" x2="2" y2="28" gradientUnits="userSpaceOnUse">
<stop offset="0.239583" stop-color="#771AFE"/>
<stop offset="0.734375" stop-color="#4067FC"/>
<stop offset="1" stop-color="#00C0FA"/>
</linearGradient>
<linearGradient id="paint1_linear" x1="61" y1="28" x2="2" y2="28" gradientUnits="userSpaceOnUse">
<stop offset="0.239583" stop-color="#771AFE"/>
<stop offset="0.734375" stop-color="#4067FC"/>
<stop offset="1" stop-color="#00C0FA"/>
</linearGradient>
<linearGradient id="paint2_linear" x1="61" y1="28" x2="2" y2="28" gradientUnits="userSpaceOnUse">
<stop offset="0.239583" stop-color="#771AFE"/>
<stop offset="0.734375" stop-color="#4067FC"/>
<stop offset="1" stop-color="#00C0FA"/>
</linearGradient>
<linearGradient id="paint3_linear" x1="61" y1="28" x2="2" y2="28" gradientUnits="userSpaceOnUse">
<stop offset="0.239583" stop-color="#771AFE"/>
<stop offset="0.734375" stop-color="#4067FC"/>
<stop offset="1" stop-color="#00C0FA"/>
</linearGradient>
<linearGradient id="paint4_linear" x1="61" y1="28" x2="2" y2="28" gradientUnits="userSpaceOnUse">
<stop offset="0.239583" stop-color="#771AFE"/>
<stop offset="0.734375" stop-color="#4067FC"/>
<stop offset="1" stop-color="#00C0FA"/>
</linearGradient>
<linearGradient id="paint5_linear" x1="61" y1="28" x2="2" y2="28" gradientUnits="userSpaceOnUse">
<stop offset="0.239583" stop-color="#771AFE"/>
<stop offset="0.734375" stop-color="#4067FC"/>
<stop offset="1" stop-color="#00C0FA"/>
</linearGradient>
<linearGradient id="paint6_linear" x1="61" y1="28" x2="2" y2="28" gradientUnits="userSpaceOnUse">
<stop offset="0.239583" stop-color="#771AFE"/>
<stop offset="0.734375" stop-color="#4067FC"/>
<stop offset="1" stop-color="#00C0FA"/>
</linearGradient>
<linearGradient id="paint7_linear" x1="61" y1="28" x2="2" y2="28" gradientUnits="userSpaceOnUse">
<stop offset="0.239583" stop-color="#771AFE"/>
<stop offset="0.734375" stop-color="#4067FC"/>
<stop offset="1" stop-color="#00C0FA"/>
</linearGradient>
<linearGradient id="paint8_linear" x1="61" y1="28" x2="2" y2="28" gradientUnits="userSpaceOnUse">
<stop offset="0.239583" stop-color="#771AFE"/>
<stop offset="0.734375" stop-color="#4067FC"/>
<stop offset="1" stop-color="#00C0FA"/>
</linearGradient>
<linearGradient id="paint9_linear" x1="61" y1="28" x2="2" y2="28" gradientUnits="userSpaceOnUse">
<stop offset="0.239583" stop-color="#771AFE"/>
<stop offset="0.734375" stop-color="#4067FC"/>
<stop offset="1" stop-color="#00C0FA"/>
</linearGradient>
<linearGradient id="paint10_linear" x1="61" y1="28" x2="2" y2="28" gradientUnits="userSpaceOnUse">
<stop offset="0.239583" stop-color="#771AFE"/>
<stop offset="0.734375" stop-color="#4067FC"/>
<stop offset="1" stop-color="#00C0FA"/>
</linearGradient>
<linearGradient id="paint11_linear" x1="61" y1="28" x2="2" y2="28" gradientUnits="userSpaceOnUse">
<stop offset="0.239583" stop-color="#771AFE"/>
<stop offset="0.734375" stop-color="#4067FC"/>
<stop offset="1" stop-color="#00C0FA"/>
</linearGradient>
<linearGradient id="paint12_linear" x1="61" y1="28" x2="2" y2="28" gradientUnits="userSpaceOnUse">
<stop offset="0.239583" stop-color="#771AFE"/>
<stop offset="0.734375" stop-color="#4067FC"/>
<stop offset="1" stop-color="#00C0FA"/>
</linearGradient>
<linearGradient id="paint13_linear" x1="61" y1="28" x2="2" y2="28" gradientUnits="userSpaceOnUse">
<stop offset="0.239583" stop-color="#771AFE"/>
<stop offset="0.734375" stop-color="#4067FC"/>
<stop offset="1" stop-color="#00C0FA"/>
</linearGradient>
<linearGradient id="paint14_linear" x1="61" y1="28" x2="2" y2="28" gradientUnits="userSpaceOnUse">
<stop offset="0.239583" stop-color="#771AFE"/>
<stop offset="0.734375" stop-color="#4067FC"/>
<stop offset="1" stop-color="#00C0FA"/>
</linearGradient>
<linearGradient id="paint15_linear" x1="61" y1="28" x2="2" y2="28" gradientUnits="userSpaceOnUse">
<stop offset="0.239583" stop-color="#771AFE"/>
<stop offset="0.734375" stop-color="#4067FC"/>
<stop offset="1" stop-color="#00C0FA"/>
</linearGradient>
<linearGradient id="paint16_linear" x1="61" y1="28" x2="2" y2="28" gradientUnits="userSpaceOnUse">
<stop offset="0.239583" stop-color="#771AFE"/>
<stop offset="0.734375" stop-color="#4067FC"/>
<stop offset="1" stop-color="#00C0FA"/>
</linearGradient>
<linearGradient id="paint17_linear" x1="61" y1="28" x2="2" y2="28" gradientUnits="userSpaceOnUse">
<stop offset="0.239583" stop-color="#771AFE"/>
<stop offset="0.734375" stop-color="#4067FC"/>
<stop offset="1" stop-color="#00C0FA"/>
</linearGradient>
<linearGradient id="paint18_linear" x1="61" y1="28" x2="2" y2="28" gradientUnits="userSpaceOnUse">
<stop offset="0.239583" stop-color="#771AFE"/>
<stop offset="0.734375" stop-color="#4067FC"/>
<stop offset="1" stop-color="#00C0FA"/>
</linearGradient>
<linearGradient id="paint19_linear" x1="97" y1="13.5" x2="98" y2="44" gradientUnits="userSpaceOnUse">
<stop stop-color="#00C0FA"/>
<stop offset="1" stop-color="#771AFE"/>
</linearGradient>
<linearGradient id="paint20_linear" x1="97" y1="13.5" x2="98" y2="44" gradientUnits="userSpaceOnUse">
<stop stop-color="#00C0FA"/>
<stop offset="1" stop-color="#771AFE"/>
</linearGradient>
<linearGradient id="paint21_linear" x1="97" y1="13.5" x2="98" y2="44" gradientUnits="userSpaceOnUse">
<stop stop-color="#00C0FA"/>
<stop offset="1" stop-color="#771AFE"/>
</linearGradient>
<linearGradient id="paint22_linear" x1="200.005" y1="18.2857" x2="200.005" y2="37.586" gradientUnits="userSpaceOnUse">
<stop stop-color="#00C0FA"/>
<stop offset="1" stop-color="#2D5EF5"/>
</linearGradient>
<linearGradient id="paint23_linear" x1="200.005" y1="18.2857" x2="200.005" y2="37.586" gradientUnits="userSpaceOnUse">
<stop stop-color="#00C0FA"/>
<stop offset="1" stop-color="#2D5EF5"/>
</linearGradient>
<linearGradient id="paint24_linear" x1="200.005" y1="18.2857" x2="200.005" y2="37.586" gradientUnits="userSpaceOnUse">
<stop stop-color="#00C0FA"/>
<stop offset="1" stop-color="#2D5EF5"/>
</linearGradient>
<linearGradient id="paint25_linear" x1="200.005" y1="18.2857" x2="200.005" y2="37.586" gradientUnits="userSpaceOnUse">
<stop stop-color="#00C0FA"/>
<stop offset="1" stop-color="#2D5EF5"/>
</linearGradient>
<linearGradient id="paint26_linear" x1="200.005" y1="18.2857" x2="200.005" y2="37.586" gradientUnits="userSpaceOnUse">
<stop stop-color="#00C0FA"/>
<stop offset="1" stop-color="#2D5EF5"/>
</linearGradient>
<linearGradient id="paint27_linear" x1="200.005" y1="18.2857" x2="200.005" y2="37.586" gradientUnits="userSpaceOnUse">
<stop stop-color="#00C0FA"/>
<stop offset="1" stop-color="#2D5EF5"/>
</linearGradient>
<linearGradient id="paint28_linear" x1="200.005" y1="18.2857" x2="200.005" y2="37.586" gradientUnits="userSpaceOnUse">
<stop stop-color="#00C0FA"/>
<stop offset="1" stop-color="#2D5EF5"/>
</linearGradient>
</defs>
</svg>
