<svg width="268" height="56" viewBox="0 0 268 56" fill="none" xmlns="http://www.w3.org/2000/svg">
<path d="M25.3267 53.464C8.29358 52.2013 -3.0401 32.2611 4.84351 16.7768L24.3171 50.3011C24.1232 51.415 24.5219 52.6609 25.3267 53.464Z" fill="url(#paint0_linear)"/>
<path d="M22.6478 52.4696C22.6478 52.6562 22.6634 52.8502 22.6943 53.0447C8.04547 50.3429 -1.56279 33.6506 3.77968 19.3728L22.6943 51.9257C22.6623 52.0647 22.6467 52.3095 22.6478 52.4696Z" fill="url(#paint1_linear)"/>
<path d="M27.6872 28.8843C27.5062 29.8455 24.3756 46.4129 24.3097 46.781L7.91868 18.5798C9.03711 18.9534 10.3397 18.7336 11.2728 18.0203L27.6872 28.8843Z" fill="url(#paint2_linear)"/>
<path d="M27.6872 28.8843L24.6202 45.1256L9.29264 18.7508C10.0167 18.7051 10.7001 18.4521 11.2728 18.0203L27.6872 28.8843Z" fill="url(#paint3_linear)"/>
<path d="M33.5805 12.153L28.712 26.2419L28.3703 27.2367L12.3905 16.6605C13.1687 15.1577 12.6725 13.1467 11.3735 12.1534H33.5805V12.153Z" fill="url(#paint4_linear)"/>
<path d="M33.5805 12.153L28.712 26.2419L13.1207 15.9296C13.7348 14.7493 13.5791 13.183 12.7946 12.153H33.5805Z" fill="url(#paint5_linear)"/>
<path d="M46.8425 10.3969H9.1994C18.4562 -0.392154 37.5884 -0.400353 46.8425 10.3969Z" fill="url(#paint6_linear)"/>
<path d="M45.7478 9.29352H10.2944C19.3175 -0.045466 36.7275 -0.0548364 45.7478 9.29352Z" fill="url(#paint7_linear)"/>
<path d="M45.018 12.153C45.018 12.1608 45.0102 12.1608 45.0102 12.1608C43.6171 13.263 43.2169 15.308 44.0938 16.8311L30.4593 26.5683C30.398 26.7343 35.2806 12.561 35.421 12.153H45.018Z" fill="url(#paint8_linear)"/>
<path d="M43.5426 12.153C43.5426 12.1608 43.5348 12.1608 43.5348 12.1608C42.1577 13.2622 41.7415 15.3155 42.6262 16.8311L30.9329 25.185L35.421 12.153H43.5426Z" fill="url(#paint9_linear)"/>
<path d="M48.1006 18.6887L47.8209 19.1705C47.5135 19.6984 31.2219 47.9625 30.9173 48.4751C29.7629 46.9981 27.4239 46.646 25.9013 47.768L29.2558 30.0579L29.4653 29.4208L45.2743 18.1371C46.0927 18.6876 47.1362 18.8742 48.1006 18.6887Z" fill="url(#paint10_linear)"/>
<path d="M48.0928 18.6887L30.9095 48.4673C30.107 47.485 28.8084 46.9567 27.5241 47.1309L30.661 30.594L30.8705 29.9568L46.6404 18.6887C47.1171 18.7899 47.6168 18.775 48.0928 18.6887Z" fill="url(#paint11_linear)"/>
<path d="M53.7141 27.8973C53.7477 41.2124 43.5129 52.1748 30.7074 53.4718C29.8581 53.6221 50.5758 17.7337 51.2062 16.808C52.8426 20.2594 53.7044 23.9325 53.7141 27.8973Z" fill="url(#paint12_linear)"/>
<path d="M53.7141 27.8973C53.7141 40.4476 44.7305 50.8996 32.8506 53.1532C32.9922 52.7132 33.0308 52.2158 32.9903 51.7543L52.0371 18.7508C53.1165 21.5951 53.7141 24.6802 53.7141 27.8973Z" fill="url(#paint13_linear)"/>
<path d="M50.2356 15.0441C50.2633 18.9515 44.1141 18.7083 44.4585 14.8263C44.6579 11.232 50.2914 11.4143 50.2356 15.0441Z" fill="url(#paint14_linear)"/>
<path d="M50.2356 15.0441C50.2539 18.8039 44.8931 18.5287 45.2118 14.8263C45.4045 11.3737 50.2879 11.5935 50.2356 15.0441Z" fill="url(#paint15_linear)"/>
<path d="M30.9571 50.854C31.0062 54.6766 25.0232 54.6591 25.0848 50.8536C25.0298 47.052 31.014 47.0399 30.9571 50.854Z" fill="url(#paint16_linear)"/>
<path d="M11.9485 15.0441C11.9762 18.9515 5.82695 18.7083 6.17141 14.8263C6.37037 11.232 12.0039 11.4143 11.9485 15.0441Z" fill="url(#paint17_linear)"/>
<path d="M11.9485 15.0441C11.9668 18.8039 6.60599 18.5287 6.9247 14.8263C7.11741 11.3737 12.0003 11.5935 11.9485 15.0441Z" fill="url(#paint18_linear)"/>
<path d="M82.295 18.4487V21.0204H68.5713V18.4487H82.295ZM74.1473 24.7015H76.719V37.3968H74.1473V24.7015Z" fill="url(#paint19_linear)"/>
<path d="M93.8216 30.6566H89.3555V37.3968H86.757V28.085C89.6933 27.7827 97.7482 29.5724 97.3943 24.5658C97.7631 19.5267 89.6979 21.3175 86.757 21.0199V18.4482H93.8489C100.637 18.1439 102.274 27.7652 96.5015 30.1419L100.589 37.3962H97.6388L93.8216 30.6566Z" fill="url(#paint20_linear)"/>
<path d="M108.597 29.9258L110.167 32.3618L107 37.3968H103.833L108.597 29.9258ZM107.542 18.4487L110.248 22.8065L108.733 25.2967L104.375 18.4482H107.542V18.4487ZM119.831 37.3968H116.664L110.519 27.5439L116.123 18.4487H119.317L113.551 27.5439L119.831 37.3968Z" fill="url(#paint21_linear)"/>
<path d="M147.461 31.9826L149.843 33.1735C145.366 41.1592 132.274 37.3291 132.817 27.9487C132.272 18.5394 145.374 14.6886 149.843 22.7249L147.461 23.889C144.157 18.2526 134.968 21.24 135.469 27.9497C134.97 34.6347 144.178 37.6762 147.461 31.9826ZM142.074 26.3255C144.208 26.3085 144.229 29.6306 142.074 29.6007C139.958 29.6275 139.979 26.3106 142.074 26.3255Z" fill="url(#paint22_linear)"/>
<path d="M171.845 27.9497C172.248 40.4805 153.052 40.4722 153.465 27.9219C153.066 15.3756 172.269 15.4071 171.845 27.9497ZM169.192 27.9497C169.589 18.7576 155.74 18.6941 156.118 27.9234C155.728 37.1532 169.571 37.131 169.192 27.9497ZM164.293 27.9497C164.329 30.0422 160.988 30.069 161.018 27.9497C160.985 25.7912 164.331 25.8175 164.293 27.9497Z" fill="url(#paint23_linear)"/>
<path d="M190.923 37.5859H190.68L179.149 24.9448V37.3961H176.577V18.2856H176.794L188.325 31.0351V18.4481H190.923V37.5859Z" fill="url(#paint24_linear)"/>
<path d="M210.678 37.5859H210.435L198.904 24.9448V37.3961H196.332V18.2856H196.549L208.08 31.0351V18.4481H210.678V37.5859Z" fill="url(#paint25_linear)"/>
<path d="M228.512 21.0198H216.087V18.4481H228.512V21.0198ZM227.672 29.1675H216.087V26.65H227.672V29.1675ZM228.674 34.7977V37.3961H216.087V34.7977H228.674Z" fill="url(#paint26_linear)"/>
<path d="M247.482 31.9826L249.864 33.1735C245.387 41.1592 232.296 37.3291 232.838 27.9487C232.294 18.5394 245.396 14.6886 249.864 22.7249L247.482 23.889C244.179 18.2526 234.989 21.24 235.491 27.9497C234.992 34.6347 244.2 37.6762 247.482 31.9826ZM242.096 26.3255C244.23 26.3085 244.251 29.6306 242.096 29.6007C239.98 29.6275 240.002 26.3106 242.096 26.3255Z" fill="url(#paint27_linear)"/>
<path d="M267.211 18.4486V21.0203H253.487V18.4486H267.211ZM259.063 24.7014H261.635V37.3966H259.063V24.7014Z" fill="url(#paint28_linear)"/>
<defs>
<linearGradient id="paint0_linear" x1="60.9999" y1="28.0001" x2="1.99988" y2="28.0001" gradientUnits="userSpaceOnUse">
<stop offset="0.239583" stop-color="#771AFE"/>
<stop offset="0.734375" stop-color="#4067FC"/>
<stop offset="1" stop-color="#00C0FA"/>
</linearGradient>
<linearGradient id="paint1_linear" x1="60.9999" y1="28.0001" x2="1.99988" y2="28.0001" gradientUnits="userSpaceOnUse">
<stop offset="0.239583" stop-color="#771AFE"/>
<stop offset="0.734375" stop-color="#4067FC"/>
<stop offset="1" stop-color="#00C0FA"/>
</linearGradient>
<linearGradient id="paint2_linear" x1="60.9999" y1="28.0001" x2="1.99988" y2="28.0001" gradientUnits="userSpaceOnUse">
<stop offset="0.239583" stop-color="#771AFE"/>
<stop offset="0.734375" stop-color="#4067FC"/>
<stop offset="1" stop-color="#00C0FA"/>
</linearGradient>
<linearGradient id="paint3_linear" x1="60.9999" y1="28.0001" x2="1.99988" y2="28.0001" gradientUnits="userSpaceOnUse">
<stop offset="0.239583" stop-color="#771AFE"/>
<stop offset="0.734375" stop-color="#4067FC"/>
<stop offset="1" stop-color="#00C0FA"/>
</linearGradient>
<linearGradient id="paint4_linear" x1="60.9999" y1="28.0001" x2="1.99988" y2="28.0001" gradientUnits="userSpaceOnUse">
<stop offset="0.239583" stop-color="#771AFE"/>
<stop offset="0.734375" stop-color="#4067FC"/>
<stop offset="1" stop-color="#00C0FA"/>
</linearGradient>
<linearGradient id="paint5_linear" x1="60.9999" y1="28.0001" x2="1.99988" y2="28.0001" gradientUnits="userSpaceOnUse">
<stop offset="0.239583" stop-color="#771AFE"/>
<stop offset="0.734375" stop-color="#4067FC"/>
<stop offset="1" stop-color="#00C0FA"/>
</linearGradient>
<linearGradient id="paint6_linear" x1="60.9999" y1="28.0001" x2="1.99988" y2="28.0001" gradientUnits="userSpaceOnUse">
<stop offset="0.239583" stop-color="#771AFE"/>
<stop offset="0.734375" stop-color="#4067FC"/>
<stop offset="1" stop-color="#00C0FA"/>
</linearGradient>
<linearGradient id="paint7_linear" x1="60.9999" y1="28.0001" x2="1.99988" y2="28.0001" gradientUnits="userSpaceOnUse">
<stop offset="0.239583" stop-color="#771AFE"/>
<stop offset="0.734375" stop-color="#4067FC"/>
<stop offset="1" stop-color="#00C0FA"/>
</linearGradient>
<linearGradient id="paint8_linear" x1="60.9999" y1="28.0001" x2="1.99988" y2="28.0001" gradientUnits="userSpaceOnUse">
<stop offset="0.239583" stop-color="#771AFE"/>
<stop offset="0.734375" stop-color="#4067FC"/>
<stop offset="1" stop-color="#00C0FA"/>
</linearGradient>
<linearGradient id="paint9_linear" x1="60.9999" y1="28.0001" x2="1.99988" y2="28.0001" gradientUnits="userSpaceOnUse">
<stop offset="0.239583" stop-color="#771AFE"/>
<stop offset="0.734375" stop-color="#4067FC"/>
<stop offset="1" stop-color="#00C0FA"/>
</linearGradient>
<linearGradient id="paint10_linear" x1="60.9999" y1="28.0001" x2="1.99988" y2="28.0001" gradientUnits="userSpaceOnUse">
<stop offset="0.239583" stop-color="#771AFE"/>
<stop offset="0.734375" stop-color="#4067FC"/>
<stop offset="1" stop-color="#00C0FA"/>
</linearGradient>
<linearGradient id="paint11_linear" x1="60.9999" y1="28.0001" x2="1.99988" y2="28.0001" gradientUnits="userSpaceOnUse">
<stop offset="0.239583" stop-color="#771AFE"/>
<stop offset="0.734375" stop-color="#4067FC"/>
<stop offset="1" stop-color="#00C0FA"/>
</linearGradient>
<linearGradient id="paint12_linear" x1="60.9999" y1="28.0001" x2="1.99988" y2="28.0001" gradientUnits="userSpaceOnUse">
<stop offset="0.239583" stop-color="#771AFE"/>
<stop offset="0.734375" stop-color="#4067FC"/>
<stop offset="1" stop-color="#00C0FA"/>
</linearGradient>
<linearGradient id="paint13_linear" x1="60.9999" y1="28.0001" x2="1.99988" y2="28.0001" gradientUnits="userSpaceOnUse">
<stop offset="0.239583" stop-color="#771AFE"/>
<stop offset="0.734375" stop-color="#4067FC"/>
<stop offset="1" stop-color="#00C0FA"/>
</linearGradient>
<linearGradient id="paint14_linear" x1="60.9999" y1="28.0001" x2="1.99988" y2="28.0001" gradientUnits="userSpaceOnUse">
<stop offset="0.239583" stop-color="#771AFE"/>
<stop offset="0.734375" stop-color="#4067FC"/>
<stop offset="1" stop-color="#00C0FA"/>
</linearGradient>
<linearGradient id="paint15_linear" x1="60.9999" y1="28.0001" x2="1.99988" y2="28.0001" gradientUnits="userSpaceOnUse">
<stop offset="0.239583" stop-color="#771AFE"/>
<stop offset="0.734375" stop-color="#4067FC"/>
<stop offset="1" stop-color="#00C0FA"/>
</linearGradient>
<linearGradient id="paint16_linear" x1="60.9999" y1="28.0001" x2="1.99988" y2="28.0001" gradientUnits="userSpaceOnUse">
<stop offset="0.239583" stop-color="#771AFE"/>
<stop offset="0.734375" stop-color="#4067FC"/>
<stop offset="1" stop-color="#00C0FA"/>
</linearGradient>
<linearGradient id="paint17_linear" x1="60.9999" y1="28.0001" x2="1.99988" y2="28.0001" gradientUnits="userSpaceOnUse">
<stop offset="0.239583" stop-color="#771AFE"/>
<stop offset="0.734375" stop-color="#4067FC"/>
<stop offset="1" stop-color="#00C0FA"/>
</linearGradient>
<linearGradient id="paint18_linear" x1="60.9999" y1="28.0001" x2="1.99988" y2="28.0001" gradientUnits="userSpaceOnUse">
<stop offset="0.239583" stop-color="#771AFE"/>
<stop offset="0.734375" stop-color="#4067FC"/>
<stop offset="1" stop-color="#00C0FA"/>
</linearGradient>
<linearGradient id="paint19_linear" x1="96.9999" y1="13.4999" x2="97.9999" y2="43.9999" gradientUnits="userSpaceOnUse">
<stop stop-color="#00C0FA"/>
<stop offset="1" stop-color="#771AFE"/>
</linearGradient>
<linearGradient id="paint20_linear" x1="96.9999" y1="13.4999" x2="97.9999" y2="43.9999" gradientUnits="userSpaceOnUse">
<stop stop-color="#00C0FA"/>
<stop offset="1" stop-color="#771AFE"/>
</linearGradient>
<linearGradient id="paint21_linear" x1="96.9999" y1="13.4999" x2="97.9999" y2="43.9999" gradientUnits="userSpaceOnUse">
<stop stop-color="#00C0FA"/>
<stop offset="1" stop-color="#771AFE"/>
</linearGradient>
<linearGradient id="paint22_linear" x1="200.006" y1="18.2856" x2="200.006" y2="37.5859" gradientUnits="userSpaceOnUse">
<stop stop-color="#00C0FA"/>
<stop offset="1" stop-color="#2D5EF5"/>
</linearGradient>
<linearGradient id="paint23_linear" x1="200.006" y1="18.2856" x2="200.006" y2="37.5859" gradientUnits="userSpaceOnUse">
<stop stop-color="#00C0FA"/>
<stop offset="1" stop-color="#2D5EF5"/>
</linearGradient>
<linearGradient id="paint24_linear" x1="200.006" y1="18.2856" x2="200.006" y2="37.5859" gradientUnits="userSpaceOnUse">
<stop stop-color="#00C0FA"/>
<stop offset="1" stop-color="#2D5EF5"/>
</linearGradient>
<linearGradient id="paint25_linear" x1="200.006" y1="18.2856" x2="200.006" y2="37.5859" gradientUnits="userSpaceOnUse">
<stop stop-color="#00C0FA"/>
<stop offset="1" stop-color="#2D5EF5"/>
</linearGradient>
<linearGradient id="paint26_linear" x1="200.006" y1="18.2856" x2="200.006" y2="37.5859" gradientUnits="userSpaceOnUse">
<stop stop-color="#00C0FA"/>
<stop offset="1" stop-color="#2D5EF5"/>
</linearGradient>
<linearGradient id="paint27_linear" x1="200.006" y1="18.2856" x2="200.006" y2="37.5859" gradientUnits="userSpaceOnUse">
<stop stop-color="#00C0FA"/>
<stop offset="1" stop-color="#2D5EF5"/>
</linearGradient>
<linearGradient id="paint28_linear" x1="200.006" y1="18.2856" x2="200.006" y2="37.5859" gradientUnits="userSpaceOnUse">
<stop stop-color="#00C0FA"/>
<stop offset="1" stop-color="#2D5EF5"/>
</linearGradient>
</defs>
</svg>
